# xmcd CD database file
#
# Track frame offsets:
#	150
#	3615
#	29240
#	48415
#	64427
#	66917
#	90555
#	107987
#	131445
#	153397
#	157772
#	178532
#	205220
#	207402
#	229265
#	257377
#	280905
#	307695
#
# Disc length: 4137 seconds
#
# Revision: 0
# Processed by: cddbd v1.5.1PL0 Copyright (c) Steve Scherf et al.
# Submitted via: CDex 1.51
#
DISCID=fb102712
DTITLE=m-flo - The Intergalactic Collection〜ギャラコレ〜Disc1
DYEAR=2003
DGENRE=Vocal
TTITLE0=The Intergalactic Collection
TTITLE1=How You Like Me Now
TTITLE2=Mirrorball Satellite 2012
TTITLE3=Quantum Leap II
TTITLE4=The Cat Walk
TTITLE5=flo jack
TTITLE6=chronopsychology
TTITLE7=Hands
TTITLE8=Come Back To Me
TTITLE9=The PR
TTITLE10=prism
TTITLE11=been so long
TTITLE12=The Intermisson
TTITLE13=orbit-3
TTITLE14=L.O.T.(Love Or Truth)
TTITLE15=One Sugar Dream
TTITLE16=come again
TTITLE17=The New Vocal
EXTD=YEAR: 2003
EXTT0=
EXTT1=
EXTT2=
EXTT3=
EXTT4=
EXTT5=
EXTT6=
EXTT7=
EXTT8=
EXTT9=
EXTT10=
EXTT11=
EXTT12=
EXTT13=
EXTT14=
EXTT15=
EXTT16=
EXTT17=
PLAYORDER=
